<svg width="17" height="16" viewBox="0 0 17 16" fill="none" xmlns="http://www.w3.org/2000/svg">
<path d="M15.8274 14.5735L12.1112 10.6129C13.0667 9.44901 13.5902 7.98455 13.5902 6.45999C13.5902 2.89801 10.7621 0 7.2859 0C3.80975 0 0.981567 2.89801 0.981567 6.45999C0.981567 10.022 3.80975 12.92 7.2859 12.92C8.5909 12.92 9.83449 12.5167 10.8977 11.751L14.6422 15.7416C14.7987 15.9082 15.0093 16 15.2348 16C15.4484 16 15.6509 15.9166 15.8047 15.7649C16.1314 15.4428 16.1418 14.9085 15.8274 14.5735ZM7.2859 1.68522C9.85533 1.68522 11.9456 3.82713 11.9456 6.45999C11.9456 9.09286 9.85533 11.2348 7.2859 11.2348C4.71647 11.2348 2.62618 9.09286 2.62618 6.45999C2.62618 3.82713 4.71647 1.68522 7.2859 1.68522Z" fill="#BFBFBF"/>
</svg>
